<svg width="175" height="223" viewBox="0 0 175 223" fill="none" xmlns="http://www.w3.org/2000/svg">
<g clip-path="url(#clip0)">
<path d="M134.795 5.18347H0V204.806H134.795V5.18347Z" fill="#535461"/>
<path d="M98.0605 209.971L0 204.806V5.18358L98.0605 0.0183105V209.971Z" fill="#6C63FF"/>
<path d="M89.8633 115.781C90.534 115.781 91.0777 115.237 91.0777 114.566C91.0777 113.894 90.534 113.35 89.8633 113.35C89.1926 113.35 88.6489 113.894 88.6489 114.566C88.6489 115.237 89.1926 115.781 89.8633 115.781Z" fill="#535461"/>
<path d="M89.8636 114.748L90.7046 116.206L91.5486 117.665H89.8636H88.1787L89.0227 116.206L89.8636 114.748Z" fill="#535461"/>
<path d="M102.311 209.971L96.3057 209.953L96.5425 0.0181885H102.311V209.971Z" fill="#6C63FF"/>
<g opacity="0.1">
<path opacity="0.1" d="M102.378 209.953H96.3057L96.6093 0H102.378V209.953Z" fill="white"/>
</g>
<path opacity="0.1" d="M89.8637 109.704C92.0434 109.704 93.8104 107.936 93.8104 105.754C93.8104 103.573 92.0434 101.804 89.8637 101.804C87.684 101.804 85.917 103.573 85.917 105.754C85.917 107.936 87.684 109.704 89.8637 109.704Z" fill="black"/>
<path d="M89.8637 109.097C92.0434 109.097 93.8104 107.328 93.8104 105.147C93.8104 102.965 92.0434 101.197 89.8637 101.197C87.684 101.197 85.917 102.965 85.917 105.147C85.917 107.328 87.684 109.097 89.8637 109.097Z" fill="#535461"/>
<path d="M105.031 60.0235V62.199L114.218 56.3956L113.252 55.1803L112.803 55.4446L105.696 45.0229V38.9765L102.991 39.2196V38.2534C95.8565 30.0315 95.1188 39.2196 96.5942 41.8812C98.0697 44.5428 100.769 46.4874 100.769 46.4874C102.287 47.7544 104.904 57.3254 105.544 59.7257L105.031 60.0235Z" fill="url(#paint0_linear)"/>
<path d="M164.632 55.1894L163.379 54.3386H163.324L162.185 50.9538L161.773 50.969L160.358 48.1403C161.577 47.5376 162.681 46.7263 163.621 45.743C165.832 43.5614 167.847 39.8181 167.35 33.4891C167.246 32.1796 169.405 28.7887 162.944 27.0265C162.752 25.1921 161.995 23.4629 160.778 22.0781C159.561 20.6933 157.943 19.7214 156.15 19.2968C153.653 18.6761 151.075 18.4505 148.509 18.6283C143.551 19.0507 139.203 22.6968 139.203 27.6767C139.203 27.6767 137.707 28.1385 137.625 33.0516H137.816C136.918 36.6814 137.496 40.5196 139.425 43.7226C141.353 46.9257 144.473 49.2315 148.099 50.1335L148.184 50.6439C148.272 50.6925 148.363 50.7351 148.454 50.7776L149.365 53.1536L146.423 54.922L140.521 55.1164C137.8 55.2103 135.118 55.7854 132.597 56.8149C127.193 58.9874 117.354 61.0717 117.354 61.0717L114.218 56.584L105.037 62.916L111.079 72.1497C112.044 72.8809 113.1 73.4834 114.221 73.9423H114.248H114.282L114.555 74.0517C116.049 74.6312 117.595 75.0646 119.172 75.3461C122.815 76.0783 128.28 76.6222 135.12 75.5922L135.072 75.577L135.242 75.5557L137.294 117.182H137.427L136.447 124.31C126.777 136.424 124.118 171.496 124.118 171.496L138.426 212.669C138.156 213.845 137.069 216.385 132.7 218.166C126.844 220.551 136.854 222.28 136.854 222.28L145.961 219.481C146.714 221.001 150.943 223.003 150.943 223.003L169.065 222.52V213.569H168.822C168.822 213.569 170.513 197.368 169.305 193.983C168.096 190.599 169.305 174.155 169.305 174.155L170.27 139.092C173.652 132.322 173.652 126.519 170.996 120.955C170.196 119.266 169.683 117.454 169.478 115.596C170.206 113.879 170.513 111.059 169.781 106.447C167.608 92.7318 174.614 78.9982 174.614 78.9982C175.438 74.4883 174.933 69.836 173.161 65.6084C171.388 61.3808 168.425 57.7607 164.632 55.1894ZM153.824 215.653L151.784 208.328L151.32 208.458L142.479 171.253L150.694 154.086V170.53L155.285 202.691V213.569C154.994 214.382 154.489 215.102 153.824 215.653Z" fill="url(#paint1_linear)"/>
<path d="M106.855 42.1881V48.0067L113.768 58.1427L106.855 62.6426C106.855 62.6426 103.783 50.7929 102.128 49.3982C102.128 49.3982 99.5267 47.5387 98.1089 44.9835C96.6911 42.4282 97.3985 33.5986 104.257 41.4984V42.4282L106.855 42.1881Z" fill="#FDA57D"/>
<path d="M161.882 56.0401L159.15 50.571C159.069 50.4103 158.948 50.2738 158.797 50.1756C158.647 50.0774 158.473 50.0209 158.293 50.012L147.917 49.4711C147.748 49.4623 147.579 49.4959 147.427 49.5689C147.274 49.6419 147.142 49.7519 147.043 49.8891C146.943 50.0262 146.88 50.186 146.858 50.3539C146.836 50.5219 146.857 50.6926 146.918 50.8505L149.599 57.7872C149.678 57.9924 149.822 58.1662 150.009 58.2823C150.195 58.3985 150.415 58.4508 150.634 58.4313L161.083 57.5016C161.246 57.484 161.402 57.4273 161.538 57.3364C161.674 57.2455 161.786 57.1231 161.864 56.9795C161.942 56.836 161.985 56.6756 161.988 56.512C161.991 56.3485 161.955 56.1866 161.882 56.0401Z" fill="#FDA57D"/>
<path d="M161.126 53.6885L162.89 58.8689L144.759 58.2187L151.724 54.0349L161.126 53.6885Z" fill="#EDEEF9"/>
<path d="M115.044 58.9144L114.115 57.7538L106.221 62.3995V64.4929L115.044 58.9144Z" fill="#EDEEF9"/>
<path d="M168.376 110.315C168.376 110.315 167.049 115.605 169.59 120.949C172.131 126.294 172.143 131.869 168.895 138.375L167.975 172.064C167.975 172.064 166.815 187.864 167.975 191.115C169.135 194.366 167.51 209.935 167.51 209.935H154.511V199.483L150.099 168.582V152.783L142.206 169.278L151.256 207.383L139.416 212.262L124.558 169.512C124.558 169.512 127.111 135.822 136.398 124.207L138.141 111.543L168.376 110.315Z" fill="#7A7478"/>
<path d="M167.744 218.534V209.938H154.51C154.51 209.938 153.581 213.423 147.546 214.119C141.51 214.815 150.345 218.998 150.345 218.998L167.744 218.534Z" fill="#333333"/>
<path d="M153.451 213.183L151.147 204.9L138.396 208.452C138.396 208.452 138.435 212.059 132.807 214.35C127.178 216.641 136.799 218.3 136.799 218.3L153.451 213.183Z" fill="#333333"/>
<path opacity="0.1" d="M138.144 112.238L168.375 111.023C168.002 112.826 167.925 114.679 168.148 116.507C166.763 119.764 163.797 118.871 163.797 118.871L137.345 118.057L138.144 112.238Z" fill="black"/>
<path d="M162.289 56.9396L163.503 57.7569C167.149 60.2284 169.998 63.7087 171.701 67.7731C173.404 71.8375 173.888 76.3101 173.094 80.6451C173.094 80.6451 166.36 93.8287 168.452 107.012C170.543 120.196 163.81 118.166 163.81 118.166L137.227 117.349L135.254 77.3485C135.254 77.3485 119.236 79.6303 112.038 74.0518L106.233 65.1797L115.056 59.1029L118.074 63.4114C118.074 63.4114 127.527 61.4121 132.719 59.3065C135.139 58.3162 137.714 57.7618 140.327 57.6688L162.289 56.9396Z" fill="#252A62"/>
<path opacity="0.1" d="M162.055 121.299C162.055 121.299 163.679 129.43 154.395 142.908L162.055 121.299Z" fill="black"/>
<path opacity="0.1" d="M135.126 77.388C135.126 77.388 123.984 73.672 119.109 73.672C114.233 73.672 115.047 75.7806 115.047 75.7806C115.047 75.7806 122.822 79.2444 135.126 77.388Z" fill="black"/>
<path opacity="0.1" d="M147.762 49.936L152.197 50.4677C152.337 50.486 152.464 50.6622 152.54 50.9356C151.566 52.6949 150.345 53.7462 149.022 53.7462C148.548 53.7402 148.085 53.6114 147.677 53.3724L147.337 51.3185C147.221 50.6318 147.449 49.8995 147.762 49.936Z" fill="black"/>
<path d="M150.855 53.2783C158.333 53.2783 164.395 47.2112 164.395 39.727C164.395 32.2429 158.333 26.1758 150.855 26.1758C143.377 26.1758 137.315 32.2429 137.315 39.727C137.315 47.2112 143.377 53.2783 150.855 53.2783Z" fill="#FDA57D"/>
<path opacity="0.1" d="M139.34 32.0551L140.023 32.681C140.313 32.9469 140.532 33.2819 140.659 33.6548C140.786 34.0277 140.816 34.4267 140.748 34.8147C140.68 35.2027 140.515 35.5672 140.269 35.8746C140.023 36.182 139.703 36.4222 139.34 36.5732C139.34 36.5732 145.412 42.65 146.25 43.7712C147.088 44.8923 146.11 47.8639 146.11 47.8639C146.11 47.8639 143.429 52.8043 157.534 51.674C157.534 51.674 166.842 49.6991 165.856 37.1353C165.755 35.8774 167.829 32.6172 161.624 30.9248C161.439 29.1621 160.712 27.5002 159.543 26.1692C158.374 24.8383 156.82 23.9041 155.096 23.4959C152.698 22.8992 150.221 22.6818 147.755 22.8518C145.456 23.0527 143.316 24.1096 141.757 25.8138C140.199 27.5179 139.336 29.7451 139.34 32.0551Z" fill="black"/>
<path d="M139.046 31.3137C139.046 31.3137 137.61 31.7573 137.528 36.479L139.571 36.3392C139.571 36.3392 144.301 49.0002 143.803 47.3504C141.982 41.2736 145.625 42.4099 146.484 43.5402C147.343 44.6705 146.344 47.6329 146.344 47.6329C146.344 47.6329 143.666 52.5642 157.768 51.4431C157.768 51.4431 167.077 49.4681 166.09 36.9044C165.99 35.6465 168.063 32.3863 161.858 30.6939C161.674 28.9311 160.947 27.2692 159.777 25.9383C158.608 24.6073 157.054 23.6731 155.331 23.265C152.932 22.6682 150.455 22.4509 147.99 22.6209C143.223 23.028 139.046 26.5282 139.046 31.3137Z" fill="#72351C"/>
<path opacity="0.1" d="M16.0356 4.8949V205.748" stroke="black" stroke-width="2" stroke-miterlimit="10"/>
<path opacity="0.1" d="M33.3408 3.67944V206.356" stroke="black" stroke-width="2" stroke-miterlimit="10"/>
<path opacity="0.1" d="M50.6455 2.76794V207.522" stroke="black" stroke-width="2" stroke-miterlimit="10"/>
<path opacity="0.1" d="M67.9502 1.85645V208.786" stroke="black" stroke-width="2" stroke-miterlimit="10"/>
<path opacity="0.1" d="M85.2549 0.944946V209.042" stroke="black" stroke-width="2" stroke-miterlimit="10"/>
</g>
<defs>
<linearGradient id="paint0_linear" x1="105.086" y1="62.199" x2="105.086" y2="34.9142" gradientUnits="userSpaceOnUse">
<stop stop-color="#808080" stop-opacity="0.25"/>
<stop offset="0.54" stop-color="#808080" stop-opacity="0.12"/>
<stop offset="1" stop-color="#808080" stop-opacity="0.1"/>
</linearGradient>
<linearGradient id="paint1_linear" x1="54184.4" y1="167029" x2="54184.4" y2="29469.3" gradientUnits="userSpaceOnUse">
<stop stop-color="#808080" stop-opacity="0.25"/>
<stop offset="0.54" stop-color="#808080" stop-opacity="0.12"/>
<stop offset="1" stop-color="#808080" stop-opacity="0.1"/>
</linearGradient>
<clipPath id="clip0">
<rect width="175" height="223" fill="white"/>
</clipPath>
</defs>
</svg>
