<svg width="284" height="233" viewBox="0 0 284 233" fill="none" xmlns="http://www.w3.org/2000/svg">
<g clip-path="url(#clip0)">
<path opacity="0.1" d="M48.8383 233C75.8109 233 97.6765 229.266 97.6765 224.66C97.6765 220.054 75.8109 216.32 48.8383 216.32C21.8656 216.32 0 220.054 0 224.66C0 229.266 21.8656 233 48.8383 233Z" fill="#6C63FF"/>
<path opacity="0.1" d="M235.165 231.026C262.138 231.026 284.003 227.292 284.003 222.685C284.003 218.079 262.138 214.345 235.165 214.345C208.192 214.345 186.327 218.079 186.327 222.685C186.327 227.292 208.192 231.026 235.165 231.026Z" fill="#6C63FF"/>
<path opacity="0.1" d="M76.146 0.127914C63.3814 0.81203 50.4837 4.54964 40.5246 12.5838C31.7864 19.6364 25.4846 30.724 27.0219 41.8646C28.8367 55.0157 40.544 64.5822 44.8867 77.1272C47.6811 85.1919 47.2454 94.091 45.4167 102.434C44.2402 107.809 42.4309 113.191 38.954 117.451C32.691 125.115 21.3889 128.814 18.3115 138.228C14.965 148.464 23.3979 158.504 31.3202 165.784C37.6442 171.594 44.2679 177.375 52.2374 180.559C58.0647 182.89 64.3887 183.727 70.6572 184.061C87.967 184.971 105.273 182.2 121.438 175.929C129.183 172.917 136.675 169.099 144.78 167.283C162.054 163.412 179.827 168.993 197.334 171.607C212.341 173.842 227.592 173.887 242.612 171.741C252.064 170.389 261.829 167.951 268.946 161.577C276.161 155.105 279.768 145.088 279.369 135.383C278.969 125.677 274.884 116.333 268.868 108.713C261.099 98.8715 250.382 91.869 241.058 83.4816C231.565 74.9366 223.488 64.9316 217.133 53.8422C213.47 47.446 210.354 40.6576 205.609 35.0262C198.208 26.2495 187.475 21.0296 176.75 16.9972C152.009 7.70881 126.347 5.81776 100.551 1.71306C92.4902 0.425477 84.3125 -0.300354 76.146 0.127914Z" fill="#6C63FF"/>
<g opacity="0.7">
<path opacity="0.7" d="M124.732 102.092H71.7422V131.768H124.732V102.092Z" fill="#F6F7F9"/>
<g opacity="0.2">
<path opacity="0.2" d="M81.7182 120.794C84.7648 120.794 87.2347 118.319 87.2347 115.265C87.2347 112.212 84.7648 109.737 81.7182 109.737C78.6715 109.737 76.2017 112.212 76.2017 115.265C76.2017 118.319 78.6715 120.794 81.7182 120.794Z" fill="#6C63FF"/>
</g>
<g opacity="0.2">
<path opacity="0.2" d="M117.997 108.713H93.9609V110.229H117.997V108.713Z" fill="#6C63FF"/>
</g>
<g opacity="0.2">
<path opacity="0.2" d="M106.207 112.576H93.9609V114.092H106.207V112.576Z" fill="#6C63FF"/>
</g>
<g opacity="0.2">
<path opacity="0.2" d="M113.765 116.439H93.9609V117.954H113.765V116.439Z" fill="#6C63FF"/>
</g>
<g opacity="0.2">
<path opacity="0.2" d="M117.997 120.302H93.9609V121.817H117.997V120.302Z" fill="#6C63FF"/>
</g>
<g opacity="0.2">
<path opacity="0.2" d="M118 125.877H111.348V128.806H118V125.877Z" fill="#6C63FF"/>
</g>
<path opacity="0.7" d="M169.344 20.0786H116.354V49.7542H169.344V20.0786Z" fill="#F6F7F9"/>
<g opacity="0.2">
<path opacity="0.2" d="M126.333 38.7806C129.38 38.7806 131.849 36.3054 131.849 33.2521C131.849 30.1987 129.38 27.7235 126.333 27.7235C123.286 27.7235 120.816 30.1987 120.816 33.2521C120.816 36.3054 123.286 38.7806 126.333 38.7806Z" fill="#6C63FF"/>
</g>
<g opacity="0.2">
<path opacity="0.2" d="M162.612 26.7001H138.576V28.2157H162.612V26.7001Z" fill="#6C63FF"/>
</g>
<g opacity="0.2">
<path opacity="0.2" d="M150.821 30.5629H138.576V32.0785H150.821V30.5629Z" fill="#6C63FF"/>
</g>
<g opacity="0.2">
<path opacity="0.2" d="M158.38 34.4257H138.576V35.9413H158.38V34.4257Z" fill="#6C63FF"/>
</g>
<g opacity="0.2">
<path opacity="0.2" d="M162.612 38.2911H138.576V39.8068H162.612V38.2911Z" fill="#6C63FF"/>
</g>
<g opacity="0.2">
<path opacity="0.2" d="M162.612 43.8641H155.96V46.7925H162.612V43.8641Z" fill="#6C63FF"/>
</g>
<path opacity="0.7" d="M186.981 69.9023H133.992V99.578H186.981V69.9023Z" fill="#F6F7F9"/>
<g opacity="0.2">
<path opacity="0.2" d="M143.967 88.607C147.014 88.607 149.484 86.1318 149.484 83.0785C149.484 80.0251 147.014 77.5499 143.967 77.5499C140.921 77.5499 138.451 80.0251 138.451 83.0785C138.451 86.1318 140.921 88.607 143.967 88.607Z" fill="#6C63FF"/>
</g>
<g opacity="0.2">
<path opacity="0.2" d="M180.249 76.5266H156.213V78.0422H180.249V76.5266Z" fill="#6C63FF"/>
</g>
<g opacity="0.2">
<path opacity="0.2" d="M168.459 80.3893H156.213V81.9049H168.459V80.3893Z" fill="#6C63FF"/>
</g>
<g opacity="0.2">
<path opacity="0.2" d="M176.017 84.2521H156.213V85.7677H176.017V84.2521Z" fill="#6C63FF"/>
</g>
<g opacity="0.2">
<path opacity="0.2" d="M180.249 88.1147H156.213V89.6304H180.249V88.1147Z" fill="#6C63FF"/>
</g>
<g opacity="0.2">
<path opacity="0.2" d="M180.249 93.6907H173.598V96.619H180.249V93.6907Z" fill="#6C63FF"/>
</g>
</g>
<path d="M142.35 37.7405H53.2451V88.1982H142.35V37.7405Z" fill="url(#paint0_linear)"/>
<path d="M141.728 38.3662H53.875V87.5698H141.728V38.3662Z" fill="#F6F7F9"/>
<g opacity="0.2">
<path opacity="0.2" d="M70.4132 69.3767C75.4644 69.3767 79.5592 65.2729 79.5592 60.2106C79.5592 55.1483 75.4644 51.0446 70.4132 51.0446C65.3619 51.0446 61.2671 55.1483 61.2671 60.2106C61.2671 65.2729 65.3619 69.3767 70.4132 69.3767Z" fill="#6C63FF"/>
</g>
<g opacity="0.2">
<path opacity="0.2" d="M130.57 49.3455H90.7173V51.8567H130.57V49.3455Z" fill="#6C63FF"/>
</g>
<g opacity="0.2">
<path opacity="0.2" d="M111.018 55.7527H90.7173V58.2639H111.018V55.7527Z" fill="#6C63FF"/>
</g>
<g opacity="0.2">
<path opacity="0.2" d="M123.553 62.1572H90.7173V64.6684H123.553V62.1572Z" fill="#6C63FF"/>
</g>
<g opacity="0.2">
<path opacity="0.2" d="M130.57 68.5618H90.7173V71.073H130.57V68.5618Z" fill="#6C63FF"/>
</g>
<path d="M130.567 77.8057H119.54V82.6612H130.567V77.8057Z" fill="#6C63FF"/>
<path d="M200.498 105.905H115.747V153.367H200.498V105.905Z" fill="url(#paint1_linear)"/>
<path d="M199.912 106.23H116.332V153.039H199.912V106.23Z" fill="#F6F7F9"/>
<g opacity="0.2">
<path opacity="0.2" d="M132.069 135.733C136.875 135.733 140.771 131.829 140.771 127.012C140.771 122.196 136.875 118.291 132.069 118.291C127.263 118.291 123.367 122.196 123.367 127.012C123.367 131.829 127.263 135.733 132.069 135.733Z" fill="#6C63FF"/>
</g>
<g opacity="0.2">
<path opacity="0.2" d="M189.295 116.675H151.382V119.064H189.295V116.675Z" fill="#6C63FF"/>
</g>
<g opacity="0.2">
<path opacity="0.2" d="M170.695 122.771H151.382V125.16H170.695V122.771Z" fill="#6C63FF"/>
</g>
<g opacity="0.2">
<path opacity="0.2" d="M182.619 128.864H151.382V131.253H182.619V128.864Z" fill="#6C63FF"/>
</g>
<g opacity="0.2">
<path opacity="0.2" d="M189.295 134.957H151.382V137.346H189.295V134.957Z" fill="#6C63FF"/>
</g>
<g opacity="0.5">
<path opacity="0.5" d="M189.296 143.751H178.804V148.37H189.296V143.751Z" fill="#6C63FF"/>
</g>
<g opacity="0.1">
<path opacity="0.1" d="M22.9932 80.0694L23.1985 80.114C23.1385 80.0727 23.0648 80.0567 22.9932 80.0694Z" fill="url(#paint2_linear)"/>
</g>
<path d="M65.9261 112.376C65.3128 108.249 61.5723 98.6211 61.5723 98.6211C61.5057 98.343 61.4335 98.0483 61.3503 97.7646C58.6947 88.618 55.0207 87.8088 55.0207 87.8088L41.8594 84.9972C41.968 85.0654 42.0622 85.1542 42.1368 85.2586L41.9287 85.292C41.3247 84.578 40.9257 83.7129 40.7744 82.7891C40.7494 82.6529 40.7272 82.511 40.7105 82.3664C41.6565 81.4432 42.3943 80.3279 42.8745 79.0952C43.3547 77.8626 43.5662 76.5413 43.4947 75.22C43.4232 73.8987 43.0704 72.608 42.46 71.4347C41.8496 70.2613 40.9957 69.2324 39.9558 68.4171C39.8198 68.3087 39.6783 68.2058 39.534 68.1029C40.1556 67.4438 40.175 66.5233 39.7116 65.6C38.6738 63.4392 36.4205 62.0738 34.1007 61.4091C32.3303 60.9002 30.4101 60.7361 28.6564 61.2923C27.6546 61.6093 26.7445 62.1461 25.8066 62.616C24.0584 63.4921 22.1326 64.1845 20.8117 65.6223C20.5037 65.9588 20.2235 66.387 20.3123 66.8292C20.3816 67.1601 20.6397 67.4132 20.809 67.708C21.1836 68.3643 21.0864 69.1902 20.8339 69.905C20.5814 70.6197 20.1985 71.2954 20.0181 72.0185C19.8377 72.7415 19.9099 73.6148 20.4593 74.1376C20.7263 74.3469 21.0041 74.5419 21.2918 74.7216C21.5933 74.9773 21.8576 75.274 22.0771 75.6031L23.6366 77.7139C24.3645 78.6496 25.0142 79.6439 25.579 80.6867C25.9647 81.4515 26.2672 82.2719 26.7861 82.956C26.9388 83.1594 27.1127 83.3459 27.305 83.5122C27.2551 83.4927 27.2023 83.476 27.1524 83.4538C27.3822 83.6783 27.6552 83.8535 27.9548 83.9688C28.2544 84.084 28.5743 84.1368 28.895 84.124H28.9727C29.0917 84.1221 29.2056 84.0754 29.2918 83.9933V84.2714C29.3196 85.2864 29.3168 86.3655 29.2447 87.3777L29.1226 87.3165C28.9418 87.2256 28.7388 87.1885 28.5376 87.2097C28.3364 87.2309 28.1456 87.3095 27.9876 87.4361L15.8641 97.1695C15.8641 97.1695 13.2307 100.785 13.597 107.014L11.4742 116.364C11.4742 116.364 8.81861 124.298 10.8609 129.963C12.9033 135.627 14.0881 138.862 14.0881 138.862C14.0881 138.862 14.904 145.297 16.1305 145.814C17.357 146.331 17.887 146.626 17.887 146.626L18.1312 148.164C18.1312 148.164 18.2116 148.311 18.3559 148.567C19.2495 150.122 22.5544 155.611 24.4774 155.027C24.7176 156.517 24.8225 158.026 24.7909 159.535L26.689 172.328C26.689 172.328 28.0154 175.807 27.9349 177.628C27.8544 179.45 29.4861 182.042 29.4861 182.042C28.4955 183.857 28.2052 185.974 28.6702 187.99C29.4472 191.391 30.4268 207.093 30.4268 207.093L31.8558 210.897L31.8142 215.346C31.6959 216.069 31.3939 216.749 30.9373 217.321C30.0161 218.322 30.0771 219.479 27.885 220.844C25.6928 222.21 24.2776 222.724 24.2776 224.546C24.275 224.797 24.2528 225.049 24.211 225.297C24.0056 226.629 23.6088 227.346 27.6796 227.736C32.458 228.189 35.6436 225.063 35.6436 225.063C35.6436 225.063 36.3456 223.787 39.6561 223.272C39.6561 223.272 40.7855 223.211 40.8493 222.207C40.8715 221.862 40.8659 221.2 40.8354 220.472C40.7827 219.081 40.6495 217.463 40.4747 217.382C40.2555 217.285 39.867 215.886 39.7338 215.38H40.655C40.655 215.38 41.5125 208.945 40.655 204.773C39.7976 200.602 40.5746 197.651 40.5746 197.651L40.4109 186.644C40.4109 186.644 39.2537 185.468 40.1611 183.326C41.0685 181.185 40.1611 170.579 40.1611 170.579C40.1611 170.579 40.4913 166.774 41.4292 165.884C42.3672 164.994 41.4764 160.308 41.4292 160.064L43.0942 165.681C43.0942 165.681 43.8295 176.852 45.3835 178.877L45.833 183.933C45.833 183.933 49.0186 188.588 48.4053 191.099C47.7921 193.61 49.0602 202.674 49.0602 202.674V211.943C49.0602 211.943 47.6284 215.666 49.6319 217.001L50.4948 216.968C50.2007 217.246 49.9898 217.632 49.6624 217.974C49.2794 218.369 49.063 219.871 48.9409 221.161C48.8382 222.254 48.8049 223.194 48.8049 223.194C48.8049 223.194 49.6624 224.56 51.2552 224.652C52.848 224.743 58.1175 228.781 58.1175 228.781C58.1175 228.781 63.3288 228.781 64.6746 228.503L64.7551 228.484C65.1874 228.346 65.5507 228.047 65.7707 227.649C66.0422 227.189 66.1304 226.643 66.0176 226.12C65.8484 225.322 65.2185 224.451 63.8171 223.703C60.3235 221.854 59.8046 220.124 59.8046 220.124L57.5153 216.687H57.8428C57.8428 216.687 57.6402 213.044 60.1293 208.956L59.9684 190.946C59.9684 190.946 60.9867 184.753 59.233 181.394C59.233 181.394 59.0887 177.831 60.2625 176.738C61.4363 175.645 58.7002 164.597 58.7002 164.597C58.7002 164.597 58.1452 158.668 57.4682 153.256C60.2236 155.876 63.0846 146.44 63.5729 144.763H63.6451C63.6451 144.763 63.6312 144.718 63.6118 144.64C63.5924 144.563 63.6451 144.521 63.6451 144.521C63.6451 144.507 63.0346 142.338 63.4814 142.78C63.9281 143.222 65.0353 141.568 65.0353 141.568C65.0353 141.568 64.8716 132.541 66.7918 127.991C68.7121 123.441 65.9261 112.376 65.9261 112.376ZM57.7151 118.118L57.729 118.093C58.0065 123.605 57.6735 135.366 57.6735 135.366C57.6735 135.366 57.2961 136.873 56.891 138.648L56.5996 127.474L56.3221 116.95L57.7151 118.118ZM22.5488 114.32C22.5488 114.32 23.9363 131.723 22.5488 134.231C22.152 134.946 21.8218 136.217 21.5471 137.671C21.0892 136.464 20.118 133.631 20.4649 132.129C20.9144 130.182 19.5658 125.085 19.5658 124.965C19.5658 124.846 19.4437 122.131 20.4232 120.046C21.4028 117.96 20.7507 117.07 20.7507 117.07C20.7507 117.07 21.5693 113.672 22.5488 114.32Z" fill="url(#paint3_linear)"/>
<path d="M25.9286 153.515C24.7216 158.843 19.9099 150.784 18.8138 148.851L18.5918 148.45L19.1135 146L21.8717 144.874C22.3074 145.102 22.72 145.373 23.1038 145.681C24.6217 146.86 26.861 149.388 25.9286 153.515Z" fill="#EFB7B9"/>
<path d="M63.2513 144.793L63.2208 144.913C63.2208 144.949 63.1958 144.991 63.182 145.044C62.7102 146.712 59.9048 156.073 57.1965 153.473C54.2329 150.62 55.6731 144.068 55.6731 144.068H55.7008L61.936 143.428L63.1709 144.702L63.2513 144.793Z" fill="#EFB7B9"/>
<path d="M59.6436 190.877L59.8017 208.753C57.3598 212.813 57.5568 216.428 57.5568 216.428L49.5096 216.748C47.545 215.424 48.9546 211.728 48.9546 211.728V202.526C48.9546 202.526 47.6976 193.533 48.297 191.03C48.8964 188.527 45.7718 183.919 45.7718 183.919L45.3334 178.899C43.8072 176.891 43.0857 165.801 43.0857 165.801L41.4458 160.239C41.4874 160.481 42.3393 165.156 41.4458 166.015C40.5522 166.874 40.2026 170.676 40.2026 170.676C40.2026 170.676 41.085 181.202 40.2026 183.329C39.3202 185.457 40.4412 186.666 40.4412 186.666L40.605 197.593C40.605 197.593 39.8419 200.527 40.6827 204.665C41.5235 208.803 40.6827 215.191 40.6827 215.191H32.025L32.0638 210.741L30.6625 206.965C30.6625 206.965 29.6996 191.377 28.9393 188.004C28.4823 186.003 28.7663 183.904 29.7385 182.097C29.7385 182.097 28.1373 179.525 28.2178 177.717C28.2983 175.91 26.9941 172.456 26.9941 172.456L25.1293 159.761C25.1819 157.318 24.8714 154.881 24.2081 152.53C23.1231 148.915 21.522 144.173 21.522 144.173L23.3312 144.335L32.4662 145.149C32.4662 145.149 54.6654 143.653 55.6671 144.896C55.878 145.302 56.0205 145.74 56.0889 146.192C57.0851 150.684 58.4032 164.744 58.4032 164.744C58.4032 164.744 61.0893 175.712 59.9349 176.797C58.7806 177.881 58.9249 181.416 58.9249 181.416C60.6453 184.731 59.6436 190.877 59.6436 190.877Z" fill="#444053"/>
<path d="M40.8717 221.96C40.8079 222.955 39.698 223.016 39.698 223.016C36.4513 223.528 35.7631 224.796 35.7631 224.796C35.7631 224.796 32.6358 227.897 27.9518 227.46C23.9587 227.077 24.3444 226.348 24.5498 225.041C24.5907 224.795 24.612 224.545 24.6136 224.296C24.6136 222.488 26.0011 221.973 28.1627 220.619C30.3243 219.265 30.2661 218.116 31.1679 217.123C32.0698 216.131 32.1613 214.203 32.1613 214.203C33.1825 212.424 35.7687 214.482 35.7687 214.482C35.888 215.113 39.7368 215.038 39.7368 215.038C39.7368 215.038 40.2474 217.087 40.5082 217.207C40.6803 217.288 40.8107 218.895 40.8634 220.266C40.8884 220.961 40.8912 221.62 40.8717 221.96Z" fill="#B07473"/>
<path opacity="0.1" d="M40.8717 221.96C40.8079 222.955 39.698 223.016 39.698 223.016C36.4513 223.528 35.7631 224.796 35.7631 224.796C35.7631 224.796 32.6358 227.897 27.9518 227.46C23.9587 227.077 24.3444 226.348 24.5498 225.041C26.334 225.486 29.7472 226.103 31.7395 225.019C34.5144 223.511 36.4929 222.457 36.4929 222.457L40.8579 220.23C40.8884 220.961 40.8912 221.62 40.8717 221.96Z" fill="black"/>
<path d="M65.3407 227.324C65.1275 227.721 64.7696 228.02 64.3417 228.158C64.3165 228.167 64.2905 228.174 64.264 228.178C62.9404 228.456 57.829 228.456 57.829 228.456C57.829 228.456 52.6483 224.435 51.0943 224.343C49.5404 224.251 48.6885 222.897 48.6885 222.897C48.6885 222.897 48.719 221.962 48.8189 220.878C48.941 219.596 49.1547 218.097 49.5293 217.713C50.223 216.99 50.3617 215.997 51.9351 216.628C51.9351 216.628 54.155 212.705 56.7745 215.736L59.4828 219.854C59.4828 219.854 59.9934 221.57 63.4232 223.408C64.7968 224.145 65.4156 225.013 65.5793 225.806C65.6919 226.324 65.6068 226.866 65.3407 227.324Z" fill="#B07473"/>
<path opacity="0.1" d="M65.3407 227.324C65.0354 227.583 64.6941 227.861 64.3417 228.158C64.3165 228.167 64.2905 228.174 64.264 228.178C62.9404 228.456 57.829 228.456 57.829 228.456C57.829 228.456 52.6483 224.435 51.0943 224.343C49.5404 224.251 48.6885 222.897 48.6885 222.897C48.6885 222.897 48.719 221.962 48.8189 220.878C50.4089 221.356 52.8231 222.199 53.4696 223.103C54.4603 224.493 57.471 226.415 57.471 226.415C57.471 226.415 63.0847 225.875 65.5793 225.8C65.6933 226.32 65.6082 226.864 65.3407 227.324Z" fill="black"/>
<path d="M43.4911 87.1219L36.0933 94.9559C36.0933 94.9559 27.1331 94.294 28.6982 91.641C29.4946 90.2922 29.6194 87.4695 29.55 85.0056C29.4834 82.6335 29.2393 80.6145 29.2393 80.6145C29.2393 80.6145 41.8068 74.3462 40.8439 80.1918C40.6395 81.2937 40.6273 82.4228 40.8078 83.5289C41.3545 86.4823 43.4911 87.1219 43.4911 87.1219Z" fill="#EFB7B9"/>
<path opacity="0.1" d="M40.841 80.1918C40.6366 81.2937 40.6244 82.4228 40.8049 83.5289C39.9455 84.4016 38.9214 85.0941 37.7924 85.5663C36.6633 86.0385 35.4518 86.2809 34.2284 86.2793C32.519 86.2793 30.6904 84.8888 29.3168 84.0684C29.2502 81.6963 29.2363 80.6145 29.2363 80.6145C29.2363 80.6145 41.8039 74.3462 40.841 80.1918Z" fill="black"/>
<path d="M43.4911 76.5153C43.4918 78.6185 42.7798 80.6596 41.4717 82.3043C40.1637 83.949 38.3371 85.0998 36.2912 85.5682C34.2452 86.0366 32.1012 85.7948 30.2104 84.8824C28.3195 83.97 26.7938 82.4412 25.8832 80.5463C24.9726 78.6513 24.7311 76.5027 25.1982 74.4522C25.6653 72.4018 26.8134 70.5711 28.4543 69.26C30.0953 67.9489 32.1319 67.2351 34.2305 67.2356C36.3291 67.2361 38.3654 67.9507 40.0058 69.2626C41.0927 70.1318 41.9704 71.2351 42.5737 72.4906C43.1771 73.7462 43.4906 75.1218 43.4911 76.5153Z" fill="#EFB7B9"/>
<path opacity="0.1" d="M56.0865 146.17C53.7806 151.671 38.946 151.785 38.946 151.785V145.789L38.0469 145.731C38.4354 147.447 37.4919 151.635 37.4919 151.635C25.768 153.303 22.9126 146.604 22.9126 146.604L23.3177 144.312L32.4527 145.127C32.4527 145.127 54.6519 143.631 55.6536 144.874C55.8684 145.279 56.0147 145.717 56.0865 146.17Z" fill="black"/>
<path d="M38.946 151.062V145.063L38.0469 145.008C38.4354 146.724 37.4919 150.912 37.4919 150.912C28.6705 152.157 24.8661 148.687 23.5259 146.879C23.2861 146.569 23.0805 146.233 22.9126 145.878L26.4894 125.691L27.3219 95.9821L28.6122 90.7706L28.9119 88.2677V88.2399L28.9425 88.2538L29.8526 88.6459L35.3136 91.0097L41.5488 86.3183L41.6404 86.2487L41.9484 86.0151L42.4618 86.4295L43.7355 87.4529L47.8257 113.911C47.8257 113.911 54.9183 134.284 56.2336 142.508C56.2863 142.836 56.3307 143.142 56.364 143.428C57.227 150.923 38.946 151.062 38.946 151.062Z" fill="#E1E7EF"/>
<path d="M35.9989 92.111C36.2901 92.111 36.5261 91.8744 36.5261 91.5826C36.5261 91.2908 36.2901 91.0542 35.9989 91.0542C35.7077 91.0542 35.4717 91.2908 35.4717 91.5826C35.4717 91.8744 35.7077 92.111 35.9989 92.111Z" fill="#67647E"/>
<path d="M36.243 96.9304C36.5342 96.9304 36.7703 96.6939 36.7703 96.402C36.7703 96.1102 36.5342 95.8737 36.243 95.8737C35.9519 95.8737 35.7158 96.1102 35.7158 96.402C35.7158 96.6939 35.9519 96.9304 36.243 96.9304Z" fill="#67647E"/>
<path d="M36.7675 104.736C37.0586 104.736 37.2947 104.5 37.2947 104.208C37.2947 103.916 37.0586 103.68 36.7675 103.68C36.4763 103.68 36.2402 103.916 36.2402 104.208C36.2402 104.5 36.4763 104.736 36.7675 104.736Z" fill="#67647E"/>
<path d="M37.6415 113.141C37.9327 113.141 38.1687 112.904 38.1687 112.612C38.1687 112.32 37.9327 112.084 37.6415 112.084C37.3503 112.084 37.1143 112.32 37.1143 112.612C37.1143 112.904 37.3503 113.141 37.6415 113.141Z" fill="#67647E"/>
<path d="M38.1659 121.036C38.4571 121.036 38.6931 120.799 38.6931 120.507C38.6931 120.216 38.4571 119.979 38.1659 119.979C37.8747 119.979 37.6387 120.216 37.6387 120.507C37.6387 120.799 37.8747 121.036 38.1659 121.036Z" fill="#67647E"/>
<path d="M38.6932 129.443C38.9844 129.443 39.2205 129.206 39.2205 128.914C39.2205 128.622 38.9844 128.386 38.6932 128.386C38.4021 128.386 38.166 128.622 38.166 128.914C38.166 129.206 38.4021 129.443 38.6932 129.443Z" fill="#67647E"/>
<path d="M38.4823 137.76C38.7735 137.76 39.0095 137.524 39.0095 137.232C39.0095 136.94 38.7735 136.704 38.4823 136.704C38.1911 136.704 37.9551 136.94 37.9551 137.232C37.9551 137.524 38.1911 137.76 38.4823 137.76Z" fill="#67647E"/>
<path opacity="0.1" d="M29.2835 128.628C29.2835 128.628 28.6952 136.359 27.6186 138.606C26.5419 140.853 26.0535 147.163 26.0535 147.163L23.5561 146.885C23.3164 146.574 23.1108 146.238 22.9429 145.884L26.5197 125.697L27.3522 95.9877L28.6425 90.7761L28.9422 88.2733C28.952 88.2659 28.9634 88.2611 28.9755 88.2594C29.1156 88.1931 29.269 88.1598 29.4239 88.1622C29.5788 88.1646 29.7311 88.2026 29.869 88.2733L29.9911 88.3345C29.9551 88.4374 29.919 88.543 29.8857 88.6515C28.9089 91.7244 28.5426 97.3921 28.5426 97.3921C28.5426 97.3921 29.9467 107.757 30.1049 112.579C30.2631 117.401 29.2835 128.628 29.2835 128.628Z" fill="black"/>
<path opacity="0.1" d="M23.1038 145.681C23.0763 145.745 23.0447 145.807 23.0094 145.867C22.0354 147.516 19.5658 148.564 18.8138 148.851L18.5918 148.45L19.1135 146L21.8717 144.874C22.3074 145.102 22.72 145.373 23.1038 145.681Z" fill="black"/>
<path d="M16.4276 106.227L14.1438 107.601L12.0571 116.881C12.0571 116.881 9.45148 124.757 11.4577 130.38C13.464 136.003 14.6322 139.209 14.6322 139.209C14.6322 139.209 15.4342 145.606 16.6357 146.12C17.8372 146.635 18.3617 146.924 18.3617 146.924L18.6003 148.451C18.6003 148.451 21.8636 147.338 23.018 145.391C24.1723 143.445 22.1689 138.575 22.1689 138.575C22.1689 138.575 20.4456 134.437 20.8869 132.51C21.3281 130.583 20.0044 125.519 20.0044 125.399C20.0044 125.28 19.8851 122.585 20.8369 120.516C21.7887 118.447 21.1588 117.565 21.1588 117.565L20.5566 111.658L16.4276 106.227Z" fill="#67647E"/>
<path opacity="0.1" d="M56.275 144.432C56.275 144.432 50.2229 146.724 48.2972 144.71C46.3714 142.697 46.5739 133.308 46.5739 133.308C46.5739 133.308 44.7314 115.952 43.5659 113.102C42.4005 110.251 43.011 89.6777 43.011 89.6777C43.011 89.6777 42.2229 87.0219 41.5486 86.3183C41.5062 86.272 41.4576 86.2318 41.4043 86.1987L41.6402 86.2488L42.4726 86.4295L43.7463 87.4529L47.8365 113.911C47.8365 113.911 54.9292 134.284 56.2445 142.508L56.275 144.432Z" fill="black"/>
<path opacity="0.1" d="M63.2511 145.035H63.1818C62.4214 145.133 55.6895 145.948 55.6646 144.546C55.6647 144.383 55.6739 144.221 55.6923 144.059L61.9275 143.42L63.1623 144.693C63.1845 144.777 63.204 144.849 63.2206 144.905L63.2511 145.035Z" fill="black"/>
<path d="M56.8106 96.9304L61.2366 99.2414C61.2366 99.2414 64.9078 108.797 65.51 112.896C65.51 112.896 68.2349 123.872 66.3424 128.386C64.45 132.899 64.6192 141.862 64.6192 141.862C64.6192 141.862 63.537 143.509 63.0958 143.067C62.6546 142.624 63.2567 144.794 63.2567 144.794C63.2567 144.794 55.7007 145.8 55.6646 144.31C55.6285 142.819 57.3989 135.711 57.3989 135.711C57.3989 135.711 57.879 118.797 57.1964 116.147C56.5137 113.497 56.8106 96.9304 56.8106 96.9304Z" fill="#67647E"/>
<path opacity="0.1" d="M43.6077 114.945C43.6077 114.945 41.1103 121.05 40.3195 121.453C39.5286 121.856 40.4804 123.461 40.4804 123.461C40.4804 123.461 45.0118 117.115 43.6077 114.945Z" fill="black"/>
<path opacity="0.1" d="M42.1259 93.5293C42.1536 93.4125 39.1567 96.4743 38.3575 96.9304C37.5584 97.3865 41.2712 96.9053 42.1259 93.5293Z" fill="black"/>
<path opacity="0.1" d="M33.779 114.462C33.779 114.462 29.2087 117.426 29.8081 118.594C30.4075 119.762 33.779 114.462 33.779 114.462Z" fill="black"/>
<path opacity="0.1" d="M42.084 157.692C42.084 157.692 45.9689 160.194 52.0265 160.826L42.084 157.692Z" fill="black"/>
<path opacity="0.1" d="M32.7437 163.718C32.7437 163.718 36.351 168.256 37.9965 168.379C39.642 168.501 32.7437 163.718 32.7437 163.718Z" fill="black"/>
<path opacity="0.1" d="M37.7938 181.516C37.6329 181.597 35.7487 185.612 33.8257 185.735C31.9027 185.857 37.7938 181.516 37.7938 181.516Z" fill="black"/>
<path opacity="0.1" d="M54.5127 190.312C54.5127 190.312 58.0868 189.511 58.8804 192.081C58.8804 192.081 58.6417 191.277 54.5127 190.312Z" fill="black"/>
<path opacity="0.1" d="M52.1074 205.018C52.1074 205.018 56.4363 204.134 57.3575 205.341C58.2788 206.548 52.1074 205.018 52.1074 205.018Z" fill="black"/>
<path opacity="0.1" d="M39.8533 207.068C39.8533 207.106 35.444 207.952 35.6188 208.514C35.7937 209.075 40.3195 208.995 40.4805 208.11C40.5114 208.001 40.5196 207.886 40.5045 207.772C40.4893 207.659 40.4512 207.55 40.3924 207.453C40.3336 207.355 40.2554 207.27 40.1627 207.204C40.07 207.138 39.9647 207.091 39.8533 207.068Z" fill="black"/>
<path opacity="0.1" d="M50.6641 210.883C50.6641 210.883 57.9066 209.999 57.4515 211.525C56.9964 213.052 50.6641 210.883 50.6641 210.883Z" fill="black"/>
<path opacity="0.1" d="M12.7393 121.453C12.7809 121.572 17.5093 122.215 18.1503 123.742C18.1503 123.742 13.5024 121.572 12.7809 121.572" fill="black"/>
<path opacity="0.1" d="M19.3938 133.867C19.3938 133.867 15.4646 135.113 15.7421 137.001C16.0196 138.89 15.3453 136.12 19.3938 133.867Z" fill="black"/>
<path opacity="0.1" d="M17.5625 143.428C17.5625 143.428 18.9944 141.459 20.3568 141.821C21.7193 142.182 17.5625 143.428 17.5625 143.428Z" fill="black"/>
<path opacity="0.1" d="M40.0031 69.2627C39.8646 69.3965 39.7099 69.5124 39.5425 69.6075C38.402 70.2694 38.0968 71.2761 37.5501 72.4636C37.0506 73.5398 36.4984 74.6883 35.4856 75.289C34.1814 76.076 32.4609 75.7868 31.104 76.4765C30.5026 76.7923 30.0088 77.2805 29.6856 77.8789C29.3623 78.4773 29.2243 79.1586 29.2892 79.8359C29.3774 80.3581 29.5073 80.8724 29.6777 81.3737C29.9838 82.4586 30.1233 83.5839 30.0912 84.7109C30.0953 84.7451 30.0953 84.7796 30.0912 84.8138C28.9287 84.2325 27.9013 83.4127 27.0756 82.4076C26.2498 81.4025 25.6443 80.2345 25.2984 78.9796C24.9524 77.7247 24.8737 76.4108 25.0674 75.1234C25.2611 73.8361 25.7228 72.6039 26.4226 71.507C27.1224 70.4101 28.0446 69.473 29.1293 68.7565C30.2141 68.0401 31.437 67.5603 32.7188 67.3484C34.0006 67.1365 35.3125 67.1972 36.5694 67.5265C37.8263 67.8558 38.9999 68.4464 40.0142 69.2599L40.0031 69.2627Z" fill="black"/>
<path d="M39.7615 66.4705C38.7432 64.3264 36.5316 62.972 34.2561 62.299C32.5191 61.7957 30.6349 61.6316 28.9117 62.185C27.9294 62.4993 27.0331 63.0193 26.1146 63.4976C24.3969 64.3681 22.5072 65.055 21.2169 66.4844C20.9172 66.8153 20.6397 67.2436 20.7285 67.683C20.7951 68.0111 21.0504 68.2614 21.2141 68.5534C21.5832 69.2042 21.4916 70.0245 21.2391 70.7337C20.9866 71.4428 20.6175 72.1047 20.4399 72.8333C20.2623 73.5619 20.3317 74.4157 20.87 74.9357C21.1301 75.1422 21.4006 75.3353 21.6803 75.5142C21.9744 75.7705 22.2329 76.0651 22.4489 76.3902L23.9779 78.4842C24.697 79.4136 25.3375 80.4015 25.8926 81.4376C26.2755 82.1968 26.5697 83.0089 27.0775 83.6874C27.5853 84.366 28.3817 84.911 29.2252 84.836C29.2904 84.8381 29.3552 84.8246 29.4141 84.7966C29.473 84.7685 29.5243 84.7267 29.5638 84.6747C29.597 84.6084 29.6123 84.5346 29.6082 84.4605C29.6427 83.3334 29.5032 82.2078 29.1947 81.1234C29.0243 80.622 28.8944 80.1077 28.8062 79.5855C28.7417 78.9082 28.8799 78.2271 29.2031 77.6288C29.5263 77.0305 30.0199 76.5422 30.621 76.2261C31.9807 75.5392 33.7012 75.8284 35.0054 75.0414C36.0182 74.4268 36.5704 73.2894 37.0699 72.2132C37.6249 71.0368 37.9218 70.019 39.0623 69.3571C40.2028 68.6953 40.3249 67.5968 39.7615 66.4705Z" fill="#585268"/>
<path opacity="0.1" d="M35.6133 218.166C35.6133 218.166 37.0229 219.974 36.6622 220.997C36.3015 222.021 35.6133 218.166 35.6133 218.166Z" fill="black"/>
<path opacity="0.1" d="M54.7793 222.685C54.7793 222.685 55.0929 220.26 56.3554 220.238C57.618 220.216 57.6791 220.107 58.642 220.477C59.6049 220.847 60.5067 221.426 60.2209 221.515C59.9351 221.604 58.5559 220.124 57.1685 220.878C56.287 221.358 55.4818 221.967 54.7793 222.685Z" fill="black"/>
<path opacity="0.1" d="M31.387 94.0382L35.3384 91.2573C35.3384 91.2573 29.5361 87.82 28.8451 88.3039C28.1542 88.7878 27.6797 93.1261 27.6797 93.1261L31.387 94.0382Z" fill="black"/>
<path d="M31.3703 93.8574L35.3384 91.0097C35.3384 91.0097 29.5361 87.5752 28.8451 88.0563C28.1542 88.5374 27.6797 93.1205 27.6797 93.1205L31.3703 93.8574Z" fill="#E1E7EF"/>
<path opacity="0.03" d="M31.3703 93.8574L35.3384 91.0097C35.3384 91.0097 29.5361 87.5752 28.8451 88.0563C28.1542 88.5374 27.6797 93.1205 27.6797 93.1205L31.3703 93.8574Z" fill="black"/>
<path d="M29.4997 88.0898L29.3804 88.0286C29.2039 87.9384 29.0052 87.9014 28.8081 87.9221C28.6111 87.9428 28.4243 88.0204 28.2704 88.1454L16.3717 97.8204C16.3717 97.8204 13.7855 101.405 14.1517 107.593L21.1667 117.557C21.1667 117.557 21.9686 114.181 22.9315 114.823C22.9315 114.823 24.294 132.098 22.9315 134.59C21.5691 137.082 20.9669 146.401 20.9669 146.401L25.576 146.924C25.576 146.924 26.0561 140.617 27.1383 138.367C28.2205 136.117 28.8032 128.386 28.8032 128.386C28.8032 128.386 29.7772 117.154 29.6163 112.329C29.4553 107.504 28.054 97.1446 28.054 97.1446C28.054 97.1446 28.4453 91.071 29.4997 88.0898Z" fill="#67647E"/>
<path opacity="0.1" d="M41.3518 92.275L36.4097 90.4395C36.4097 90.4395 42.7059 83.5316 43.4884 87.3638L41.3518 92.275Z" fill="black"/>
<path d="M41.3518 92.0276L36.4097 90.1949C36.4097 90.1949 42.7059 83.2842 43.4884 87.1164L41.3518 92.0276Z" fill="#E1E7EF"/>
<path opacity="0.03" d="M41.3518 92.0276L36.4097 90.1949C36.4097 90.1949 42.7059 83.2842 43.4884 87.1164L41.3518 92.0276Z" fill="black"/>
<path opacity="0.1" d="M41.1934 86.157C41.2637 86.1443 41.3363 86.1592 41.3959 86.1987L41.1934 86.157Z" fill="black"/>
<path d="M41.6733 85.6731L54.7931 88.5097C54.7931 88.5097 58.4004 89.3134 61.0061 98.3904C63.6117 107.467 57.4376 118.594 57.4376 118.594L56.0751 117.434L56.7577 143.951C56.7577 143.951 50.7029 146.24 48.7799 144.229C46.8569 142.218 47.0539 132.827 47.0539 132.827C47.0539 132.827 45.2113 115.466 44.0459 112.607C42.8804 109.748 43.4909 89.1827 43.4909 89.1827C43.4909 89.1827 42.4059 85.5146 41.6733 85.6731Z" fill="#67647E"/>
<path opacity="0.1" d="M53.6694 102.57C53.4834 102.743 53.2698 110.766 54.0717 116.873C54.5638 120.592 55.3233 124.27 56.3444 127.88L55.1539 103.407C55.1539 103.407 54.2299 102.039 53.6694 102.57Z" fill="black"/>
<path opacity="0.1" d="M52.0654 95.6595C52.3873 95.8598 53.7914 99.1942 53.1476 100.562C52.5039 101.931 52.0654 95.6595 52.0654 95.6595Z" fill="black"/>
<path opacity="0.1" d="M39.6841 66.4705C39.0416 65.1993 38.0385 64.1466 36.801 63.4448C37.7198 64.1015 38.4624 64.9756 38.9626 65.9894C39.5176 67.1157 39.3622 68.2448 38.2606 68.8844C37.1589 69.524 36.8149 70.553 36.271 71.7404C35.7715 72.8167 35.2165 73.9652 34.2037 74.5659C32.8995 75.3557 31.1818 75.0665 29.8221 75.7506C29.2208 76.0672 28.7271 76.556 28.4039 77.1547C28.0807 77.7535 27.9426 78.4351 28.0073 79.1128C28.0942 79.6353 28.2241 80.1496 28.3958 80.6506C28.7038 81.7351 28.8423 82.8608 28.8065 83.9878C28.8113 84.0616 28.797 84.1353 28.7649 84.2019C28.7254 84.254 28.6741 84.2958 28.6152 84.3238C28.5563 84.3519 28.4915 84.3654 28.4263 84.3632C28.0867 84.3899 27.746 84.3266 27.4385 84.1797C27.6627 84.402 27.9302 84.5757 28.2242 84.69C28.5183 84.8044 28.8327 84.8569 29.1478 84.8443C29.213 84.8465 29.2778 84.833 29.3367 84.805C29.3956 84.7769 29.4469 84.7351 29.4864 84.683C29.5183 84.6163 29.5335 84.5428 29.5308 84.4689C29.5639 83.3419 29.4245 82.2164 29.1173 81.1317C28.9456 80.6308 28.8157 80.1164 28.7288 79.5939C28.6643 78.9166 28.8025 78.2354 29.1257 77.6372C29.4489 77.0389 29.9425 76.5506 30.5436 76.2345C31.9033 75.5476 33.621 75.8368 34.9252 75.0498C35.938 74.4352 36.493 73.2978 36.9925 72.2215C37.5474 71.0452 37.8416 70.0274 38.9821 69.3655C40.1225 68.7036 40.2446 67.5968 39.6841 66.4705Z" fill="black"/>
<path opacity="0.1" d="M268.674 213.4C274.957 213.4 280.051 212.699 280.051 211.834C280.051 210.969 274.957 210.268 268.674 210.268C262.391 210.268 257.297 210.969 257.297 211.834C257.297 212.699 262.391 213.4 268.674 213.4Z" fill="#6C63FF"/>
<path opacity="0.1" d="M179.486 227.638C183.952 227.638 187.572 227.14 187.572 226.526C187.572 225.912 183.952 225.414 179.486 225.414C175.02 225.414 171.4 225.912 171.4 226.526C171.4 227.14 175.02 227.638 179.486 227.638Z" fill="#6C63FF"/>
<path opacity="0.1" d="M107.133 219.393C111.599 219.393 115.219 218.895 115.219 218.28C115.219 217.666 111.599 217.168 107.133 217.168C102.668 217.168 99.0474 217.666 99.0474 218.28C99.0474 218.895 102.668 219.393 107.133 219.393Z" fill="#6C63FF"/>
<path d="M111.587 215.75C112.097 215.334 112.467 214.772 112.65 214.139C112.789 213.503 112.517 212.735 111.906 212.502C111.224 212.24 110.494 212.716 109.942 213.194C109.389 213.672 108.754 214.22 108.032 214.117C108.404 213.779 108.682 213.35 108.84 212.872C108.997 212.394 109.029 211.883 108.931 211.389C108.899 211.185 108.813 210.993 108.682 210.833C108.302 210.427 107.613 210.602 107.161 210.922C105.718 211.937 105.316 213.903 105.307 215.669C105.163 215.032 105.285 214.368 105.28 213.722C105.274 213.077 105.099 212.332 104.547 211.993C104.208 211.804 103.825 211.708 103.437 211.715C102.791 211.689 102.066 211.756 101.625 212.232C101.07 212.821 101.217 213.811 101.695 214.457C102.172 215.102 102.902 215.516 103.573 215.964C104.11 216.285 104.568 216.723 104.913 217.246C104.955 217.319 104.989 217.396 105.013 217.477H109.081C109.99 217.015 110.832 216.434 111.587 215.75Z" fill="#6C63FF"/>
<path d="M273.289 209.882C273.802 209.467 274.176 208.905 274.363 208.272C274.502 207.635 274.23 206.881 273.619 206.634C272.936 206.372 272.207 206.848 271.654 207.326C271.102 207.805 270.467 208.352 269.743 208.249C270.115 207.912 270.394 207.483 270.552 207.005C270.71 206.526 270.741 206.015 270.642 205.521C270.612 205.316 270.525 205.124 270.392 204.965C270.015 204.559 269.326 204.734 268.874 205.054C267.431 206.069 267.029 208.035 267.02 209.801C266.873 209.164 266.998 208.5 266.993 207.855C266.987 207.209 266.81 206.464 266.26 206.125C265.921 205.937 265.538 205.841 265.15 205.847C264.501 205.822 263.779 205.888 263.335 206.364C262.78 206.954 262.927 207.944 263.408 208.589C263.888 209.234 264.615 209.648 265.286 210.096C265.823 210.417 266.281 210.855 266.626 211.378C266.667 211.452 266.7 211.529 266.726 211.609H270.791C271.697 211.147 272.537 210.567 273.289 209.882Z" fill="#6C63FF"/>
<path d="M181.681 222.883C182.19 222.466 182.562 221.905 182.747 221.273C182.883 220.633 182.611 219.882 182.003 219.635C181.32 219.373 180.591 219.846 180.038 220.327C179.486 220.808 178.851 221.351 178.126 221.25C178.499 220.912 178.778 220.483 178.935 220.005C179.093 219.527 179.124 219.016 179.025 218.522C178.994 218.318 178.908 218.125 178.776 217.966C178.396 217.56 177.71 217.735 177.255 218.055C175.812 219.073 175.41 221.036 175.401 222.805C175.257 222.168 175.379 221.504 175.376 220.858C175.374 220.213 175.193 219.468 174.644 219.129C174.304 218.941 173.922 218.845 173.534 218.85C172.885 218.828 172.163 218.892 171.719 219.368C171.164 219.96 171.311 220.95 171.791 221.593C172.271 222.235 172.998 222.649 173.667 223.1C174.211 223.425 174.675 223.87 175.021 224.401C175.061 224.474 175.095 224.551 175.121 224.629H179.184C180.091 224.163 180.931 223.575 181.681 222.883Z" fill="#6C63FF"/>
<path d="M263.224 95.9876C259.584 95.9153 256.37 93.329 254.55 90.1921C254.073 89.4428 253.773 88.5944 253.673 87.7115C253.686 87.5102 253.719 87.3107 253.773 87.1163C253.89 86.8222 253.983 86.519 254.051 86.2097C254.066 86.086 254.066 85.9608 254.051 85.8371C254.051 85.8371 254.051 85.8371 254.051 85.8204C254.139 85.1474 253.745 84.4995 253.251 84.035C252.758 83.5706 252.155 83.2341 251.648 82.7864C250.083 81.4098 249.608 79.2017 249.577 77.0993C249.577 77.0632 249.577 77.027 249.577 76.9881C249.594 76.0898 249.666 75.186 249.658 74.285C249.67 73.7733 249.648 73.2613 249.591 72.7527C249.442 71.479 248.959 70.1831 247.96 69.371C245.354 67.2547 240.973 69.4572 238.278 67.455C237.62 66.9683 237.09 66.2425 236.297 66.0645C235.695 65.9199 235.07 66.1145 234.485 66.3092C232.498 66.9655 230.284 67.8304 229.507 69.7659C229.063 70.8783 229.188 72.127 228.78 73.2449C228.502 73.993 228.011 74.6354 227.645 75.3473C227.343 75.8811 227.196 76.4889 227.22 77.1021C227.189 77.4195 227.234 77.7397 227.351 78.0365C227.488 78.391 227.709 78.7068 227.994 78.957C227.89 79.1776 227.759 79.3849 227.606 79.5744C227.098 80.1973 226.318 80.6423 225.791 81.2429C224.814 82.3776 224.85 83.921 225.333 85.2559C225.816 86.5907 226.682 87.806 227.276 89.1047C227.534 89.6609 227.742 90.3005 227.473 90.8623C227.287 91.2516 226.898 91.5464 226.596 91.8829C226.153 92.3811 225.875 93.005 225.802 93.6683C219.856 95.0282 219.853 99.8142 219.853 99.8142L216.645 107.918C216.645 107.918 216.132 109.281 215.535 111.08L211.733 110.399L214.358 114.831C213.856 116.636 213.504 118.31 213.62 119.15C213.62 119.15 212.441 124.712 214.539 125.683L219.173 127.771C219.373 127.893 219.589 127.986 219.814 128.049L220.003 128.133C220.07 128.166 220.144 128.183 220.219 128.183C220.294 128.183 220.368 128.166 220.435 128.133H220.46H220.51C220.605 128.142 220.7 128.129 220.788 128.094C220.892 128.039 220.974 127.95 221.018 127.841C221.019 127.832 221.019 127.824 221.018 127.816L222.406 127.412L223.582 128.803C224.112 129.176 224.631 129.501 225.139 129.793L223.33 147.925C223.33 147.925 223.036 172.025 222.15 177.511C221.82 179.544 221.817 180.929 221.942 181.872L221.909 181.933C222.128 183.482 222.697 183.788 222.697 183.788V183.766L222.73 183.788C222.998 183.085 223.316 182.402 223.682 181.744C223.682 181.872 223.682 182.003 223.682 182.139C223.665 184.186 223.602 187.047 223.405 188.908C223.044 192.073 224.323 202.557 224.323 202.557L224.764 212.095C224.836 213.714 224.461 215.321 223.682 216.74C222.636 218.645 221.274 221.323 221.185 222.51C221.181 222.575 221.181 222.64 221.185 222.705L218.865 225.411C218.865 225.411 217.977 226.782 219.975 227.335C221.049 227.635 222.905 227.335 224.392 226.982C225.043 226.832 225.624 226.466 226.04 225.944C226.456 225.421 226.683 224.772 226.685 224.104C227.068 222.79 227.711 221.567 228.577 220.508L228.952 222.702L231.449 223.322L231.768 217.307C231.898 216.969 231.956 216.607 231.94 216.245C232.431 211.968 230.783 212.351 230.783 212.351C230.825 212.392 230.853 212.444 230.864 212.501C230.836 212.454 230.808 212.404 230.783 212.354C229.77 210.352 230.267 207.07 230.267 207.07C230.267 207.07 231.579 197.537 232.04 195.02C232.365 193.243 232.232 187.42 232.123 184.158C232.123 184.022 232.123 183.88 232.109 183.766C235.975 183.716 240.712 183.582 244.042 183.26V183.655L243.426 206.18C243.384 207.616 243.094 209.033 242.568 210.368C242.568 210.394 242.546 210.419 242.538 210.444C241.801 212.325 241.381 214.317 241.294 216.336L241.017 223.495V223.692C240.52 223.884 239.738 224.437 239.715 226.042C239.682 228.392 243.814 227.608 243.814 227.608C247.946 227.608 247.976 223.297 247.976 223.297C247.976 223.297 248.11 219.345 248.304 216.701C248.498 214.056 247.682 214.64 247.682 214.64L247.621 222.149C247.621 222.168 247.621 222.188 247.621 222.207V215.613L247.685 214.657V214.629L247.699 214.426L248.212 206.667C248.212 206.667 252.017 193.736 252.608 191.255C253.027 189.495 252.852 184.183 252.713 181.243C252.713 181.107 252.713 180.979 252.696 180.854C253.873 180.748 254.916 180.737 255.335 180.737H255.527C255.527 180.737 255.33 159.969 254.839 152.132C254.348 144.296 253.559 137.143 251.589 134.988C250.402 133.686 248.745 129.665 247.618 126.687C249.968 127.706 252.406 128.507 254.903 129.078C261.135 130.385 260.283 124.962 260.283 124.962L259.65 114.709H259.692C259.669 112.023 259.439 109.342 259.004 106.692C258.676 104.659 258.171 102.556 257.4 100.852C258.077 100.593 258.743 100.295 259.398 100.017C261.091 99.2691 263.005 98.2068 263.244 96.3769H263.161C263.192 96.249 263.213 96.1188 263.224 95.9876ZM224.592 110.821C224.609 111.881 224.567 113.716 224.506 115.749L222.528 113.102L224.512 109.876L224.592 110.821ZM251.942 120.196L248.645 119.134C249.23 118.22 249.913 117.373 250.682 116.608L250.959 116.33L250.857 116.353L251.018 116.208L251.112 116.186L250.959 116.33L251.14 116.294C251.339 117.124 251.723 117.898 252.264 118.558C253.44 119.87 251.931 120.196 251.931 120.196H251.942Z" fill="url(#paint4_linear)"/>
<path d="M231.904 215.51L231.516 222.836L229.057 222.221L228.538 219.173L231.904 215.51Z" fill="#A27772"/>
<path opacity="0.1" d="M231.904 215.51L231.516 222.836L229.057 222.221L228.538 219.173L231.904 215.51Z" fill="black"/>
<path d="M240.928 223.809L244.679 224.588L247.454 222.124V215.185L247.515 214.237V214.209L247.529 214.009L248.034 206.306C248.034 206.306 251.786 193.466 252.369 191.01C252.782 189.261 252.61 183.986 252.474 181.071C252.419 179.875 252.369 179.077 252.369 179.077L244.088 177.067L243.914 183.463L243.309 205.822C243.267 207.246 242.98 208.653 242.459 209.979L242.432 210.054C241.711 211.927 241.305 213.907 241.23 215.914L240.953 223.019V223.217L240.928 223.809Z" fill="#CC818C"/>
<path opacity="0.1" d="M247.527 214.012V214.209L247.541 214.009L247.527 214.012Z" fill="black"/>
<path opacity="0.1" d="M240.928 223.809L244.679 224.588L247.454 222.124V221.534C247.446 221.665 247.405 221.792 247.335 221.903C247.265 222.014 247.169 222.106 247.055 222.171L247.016 222.193C245.724 222.879 244.259 223.169 242.804 223.027L241.338 222.902C241.206 222.917 241.077 222.949 240.953 222.997V223.194L240.928 223.809Z" fill="black"/>
<path d="M247.024 222.388L247.063 222.366C247.185 222.297 247.287 222.197 247.358 222.076C247.429 221.955 247.466 221.816 247.465 221.676L247.526 214.206C247.526 214.206 248.337 213.631 248.143 216.256C247.948 218.881 247.818 222.805 247.818 222.805C247.818 222.805 247.787 227.085 243.711 227.085C243.711 227.085 239.635 227.861 239.665 225.528C239.696 223.194 241.35 223.097 241.35 223.097L242.812 223.225C244.267 223.364 245.732 223.073 247.024 222.388Z" fill="#B07473"/>
<path d="M221.39 222.221C221.487 223.906 226.435 222.933 226.435 222.933L229.765 216.451C229.765 216.451 232.539 214.309 231.152 212.429C231.077 212.327 231.008 212.221 230.947 212.109V212.093C230.916 212.043 230.891 211.993 230.863 211.94C229.864 209.954 230.356 206.698 230.356 206.698C230.356 206.698 231.649 197.242 232.104 194.74C232.423 192.974 232.292 187.192 232.184 183.955C232.143 182.612 232.104 181.705 232.104 181.705L223.885 179.503C223.885 179.503 223.885 180.529 223.885 181.958C223.868 183.988 223.807 186.831 223.607 188.677C223.252 191.822 224.514 202.229 224.514 202.229L224.95 211.701C225.012 213.304 224.635 214.894 223.86 216.298C222.827 218.189 221.484 220.85 221.39 222.029C221.384 222.093 221.384 222.157 221.39 222.221Z" fill="#CC818C"/>
<path opacity="0.1" d="M221.39 222.221C221.487 223.906 226.434 222.933 226.434 222.933L229.764 216.45C229.764 216.45 232.539 214.309 231.152 212.429C231.076 212.327 231.008 212.22 230.946 212.109C230.902 213.091 229.836 215.541 229.836 215.541C229.836 215.541 227.087 221.056 226.229 222.318C225.372 223.581 221.553 222.085 221.412 222.04C221.4 222.1 221.392 222.16 221.39 222.221Z" fill="black"/>
<path d="M230.858 211.934C230.858 211.934 232.484 211.556 232.001 215.803C232.018 216.285 231.908 216.764 231.682 217.19C231.455 217.617 231.12 217.976 230.71 218.23C229.548 218.964 227.75 220.541 226.842 223.609C226.843 224.271 226.62 224.914 226.21 225.434C225.8 225.953 225.227 226.318 224.583 226.47C223.116 226.812 221.284 227.115 220.224 226.818C218.251 226.262 219.114 224.907 219.114 224.907L221.378 222.215C221.378 222.215 225.324 223.773 226.198 222.507C227.073 221.242 229.806 215.73 229.806 215.73C229.806 215.73 231.351 212.29 230.858 211.934Z" fill="#B07473"/>
<path opacity="0.1" d="M244.1 177.837L243.925 184.233C246.145 184.019 247.71 183.719 247.982 183.299C248.562 182.395 250.682 182.011 252.485 181.855C252.43 180.66 252.38 179.861 252.38 179.861L244.1 177.837Z" fill="black"/>
<path opacity="0.1" d="M223.876 182.726C224.089 182.295 224.4 181.919 224.783 181.63C225.657 181.143 225.563 184.742 225.563 184.742C225.563 184.742 228.463 184.77 232.178 184.723C232.137 183.377 232.098 182.473 232.098 182.473L223.879 180.27C223.879 180.27 223.89 181.296 223.876 182.726Z" fill="black"/>
<path d="M222.941 183.582C222.941 183.582 223.912 180.949 224.783 180.465C225.655 179.981 225.563 183.577 225.563 183.577C225.563 183.577 246.913 183.771 247.982 182.117C249.05 180.462 255.26 180.562 255.26 180.562C255.26 180.562 255.066 159.941 254.58 152.16C254.095 144.379 253.318 137.279 251.378 135.141C250.121 133.75 248.326 129.276 247.232 126.289C246.63 124.657 246.233 123.469 246.233 123.469L225.855 124.637L225.688 126.289L223.524 147.981C223.524 147.981 223.246 171.897 222.358 177.353C221.47 182.809 222.941 183.582 222.941 183.582Z" fill="#444053"/>
<g opacity="0.1">
<path opacity="0.1" d="M246.336 182.131C247.402 180.479 253.615 180.576 253.615 180.576C253.615 180.576 253.421 159.955 252.935 152.174C252.449 144.393 251.673 137.293 249.733 135.155C248.476 133.764 246.68 129.29 245.587 126.303C245.082 124.932 244.721 123.875 244.619 123.572L246.2 123.483C246.2 123.483 246.597 124.67 247.199 126.303C248.309 129.29 250.088 133.77 251.345 135.155C253.287 137.293 254.062 144.393 254.547 152.174C255.033 159.955 255.216 180.562 255.216 180.562C255.216 180.562 249.006 180.462 247.94 182.131C247.027 183.543 231.316 183.607 226.754 183.596C232.603 183.568 245.504 183.393 246.336 182.131Z" fill="black"/>
<path opacity="0.1" d="M223.13 180.462C223.524 180.242 223.721 180.851 223.818 181.574C223.466 182.216 223.159 182.881 222.9 183.566C222.9 183.566 222.345 183.262 222.123 181.725C222.431 181.177 222.789 180.654 223.13 180.462Z" fill="black"/>
</g>
<path d="M229.237 73.5786C227.828 75.5086 229.254 78.2478 227.742 80.1222C227.242 80.7424 226.474 81.1845 225.952 81.7908C224.986 82.9198 225.025 84.4494 225.5 85.7759C225.974 87.1024 226.832 88.3066 227.42 89.5969C227.675 90.1531 227.88 90.7844 227.617 91.3406C227.434 91.7272 227.062 92.0192 226.751 92.3557C225.78 93.443 225.752 94.9559 226.274 96.2351C226.795 97.5143 227.797 98.6239 228.771 99.703C229.16 100.131 229.651 100.601 230.297 100.59C230.638 100.562 230.967 100.454 231.258 100.273C233.559 99.0586 235.305 97.0018 236.133 94.5304C236.833 92.2053 236.685 89.7068 235.717 87.4806C234.884 85.5145 233.53 83.629 233.519 81.5488C233.519 79.8997 234.365 78.3257 234.515 76.6822C234.698 74.6882 233.519 71.5179 231.116 70.6475C231.274 71.935 229.964 72.5997 229.237 73.5786Z" fill="#585268"/>
<path opacity="0.1" d="M229.237 73.5786C227.828 75.5086 229.254 78.2478 227.742 80.1222C227.242 80.7424 226.474 81.1845 225.952 81.7908C224.986 82.9198 225.025 84.4494 225.5 85.7759C225.974 87.1024 226.832 88.3066 227.42 89.5969C227.675 90.1531 227.88 90.7844 227.617 91.3406C227.434 91.7272 227.062 92.0192 226.751 92.3557C225.78 93.443 225.752 94.9559 226.274 96.2351C226.795 97.5143 227.797 98.6239 228.771 99.703C229.16 100.131 229.651 100.601 230.297 100.59C230.638 100.562 230.967 100.454 231.258 100.273C233.559 99.0586 235.305 97.0018 236.133 94.5304C236.833 92.2053 236.685 89.7068 235.717 87.4806C234.884 85.5145 233.53 83.629 233.519 81.5488C233.519 79.8997 234.365 78.3257 234.515 76.6822C234.698 74.6882 233.519 71.5179 231.116 70.6475C231.274 71.935 229.964 72.5997 229.237 73.5786Z" fill="black"/>
<path opacity="0.1" d="M244.885 143.692C242.06 143.842 239.402 145.058 236.929 146.434C234.457 147.811 232.065 149.382 229.404 150.35" fill="black"/>
<path opacity="0.1" d="M243.128 150.361C240.334 150.63 237.729 151.898 235.792 153.934C235.106 154.663 234.515 155.481 233.799 156.179C232.702 157.247 231.347 158.014 229.867 158.404" fill="black"/>
<path opacity="0.1" d="M243.708 155.433C241.456 156.06 239.416 157.292 237.812 158.996C237.379 159.463 236.979 159.966 236.552 160.431C234.213 162.934 230.911 164.282 227.722 165.545" fill="black"/>
<path d="M243.467 85.0502C243.53 87.3122 243.725 89.5686 244.05 91.8079C244.311 93.4042 244.683 94.8253 245.215 95.4566C246.766 97.3059 237.645 99.7865 237.645 99.7865L232.259 95.6151C232.259 95.6151 236.53 91.6745 234.54 87.8284C232.551 83.9823 243.467 85.0502 243.467 85.0502Z" fill="#CC818C"/>
<path opacity="0.1" d="M225.688 126.289H247.233C246.631 124.657 246.234 123.469 246.234 123.469L225.855 124.637L225.688 126.289Z" fill="black"/>
<path d="M224.301 125.9H247.332C246.686 123.58 247.332 121.431 248.256 119.782C248.902 118.623 249.715 117.566 250.668 116.645L250.826 116.503L258.873 114.715L259.306 114.62C259.306 114.62 259.37 99.9672 254.195 97.9566C249.019 95.9459 245.912 93.2289 245.912 93.2289L238.797 95.4314L233.555 92.7756C231.873 94.5916 227.409 93.888 227.409 93.888C220.097 94.7223 220.097 100.243 220.097 100.243C220.097 100.243 224.367 110.229 224.692 110.229C225.017 110.229 224.301 125.9 224.301 125.9Z" fill="#67647E"/>
<path opacity="0.1" d="M232.254 116.583C232.254 116.583 227.556 115.54 225.958 113.716L232.254 116.583Z" fill="black"/>
<path opacity="0.1" d="M255.937 111.116L250.499 115.591C250.538 115.944 250.598 116.295 250.679 116.642L250.837 116.5L258.884 114.712L255.937 111.116Z" fill="black"/>
<path opacity="0.1" d="M241.186 124.345C241.186 124.345 242.379 125.018 244.205 125.9H247.335C246.689 123.58 247.335 121.431 248.259 119.782L242.729 117.988C244.616 119.74 241.186 124.345 241.186 124.345Z" fill="black"/>
<path d="M223.33 98.4739L220.094 100.223L216.923 108.263C216.923 108.263 213.623 117.081 213.945 119.417C213.945 119.417 212.782 124.926 214.852 125.9L220.252 128.347C220.348 128.39 220.454 128.402 220.556 128.382C220.659 128.362 220.752 128.31 220.823 128.233C220.895 128.157 220.941 128.06 220.954 127.956C220.968 127.852 220.948 127.747 220.899 127.654C220.13 126.194 219.287 123.914 220.621 122.649L219.068 119.409L224.692 110.21L226.565 107.045L223.33 98.4739Z" fill="#67647E"/>
<path opacity="0.1" d="M230.519 114.742C230.797 115.888 231.746 117.649 234.876 118.313L238.322 121.133L241.977 122.802L243.464 123.477L244.097 118.906L242.662 118.119L240.997 117.204C240.997 117.204 237.226 110.351 231.252 113.246C230.977 113.374 230.755 113.592 230.622 113.865C230.488 114.137 230.452 114.447 230.519 114.742Z" fill="black"/>
<path d="M230.716 114.353C230.994 115.499 231.943 117.259 235.073 117.924L238.519 120.747L242.174 122.415L243.661 123.091L244.294 118.519L242.859 117.735L241.194 116.817C241.194 116.817 237.423 109.968 231.449 112.86C231.175 112.988 230.953 113.205 230.82 113.477C230.687 113.749 230.65 114.058 230.716 114.353Z" fill="#CC818C"/>
<path opacity="0.1" d="M237.448 90.9846C242.058 90.9846 245.795 87.2395 245.795 82.6195C245.795 77.9996 242.058 74.2544 237.448 74.2544C232.838 74.2544 229.101 77.9996 229.101 82.6195C229.101 87.2395 232.838 90.9846 237.448 90.9846Z" fill="black"/>
<path d="M237.448 90.79C242.058 90.79 245.795 87.0448 245.795 82.4248C245.795 77.8049 242.058 74.0597 237.448 74.0597C232.838 74.0597 229.101 77.8049 229.101 82.4248C229.101 87.0448 232.838 90.79 237.448 90.79Z" fill="#CC818C"/>
<path opacity="0.1" d="M242.618 100.295L240.121 95.4064C240.121 95.4064 243.795 93.9213 244.061 92.1971C244.327 90.4729 247.58 94.2161 246.875 95.4564C246.17 96.6967 242.618 100.295 242.618 100.295Z" fill="black"/>
<path d="M242.618 99.906L240.121 95.0171C240.121 95.0171 243.795 93.5321 244.061 91.8079C244.327 90.0837 247.58 93.8296 246.875 95.0672C246.17 96.3047 242.618 99.906 242.618 99.906Z" fill="#67647E"/>
<path d="M222.081 112.532L235.956 131.217C235.956 131.217 230.844 133.998 223.79 129.012L220.738 125.382L212.066 110.727L222.081 112.532Z" fill="#F6F8FB"/>
<path d="M219.351 122.69L220.613 122.657C220.613 122.657 228.328 115.148 230.22 118.947C232.112 122.746 225.417 126.289 225.417 126.289L223.38 127.401L220.71 128.18L219.012 125.894L219.351 122.69Z" fill="#CC818C"/>
<path opacity="0.1" d="M221.212 126.745C221.329 127.176 221.44 127.652 221.246 128.052C221.201 128.16 221.119 128.249 221.015 128.302C220.928 128.339 220.832 128.352 220.738 128.341C220.07 128.284 219.448 127.975 218.998 127.476C218.554 126.981 218.175 126.432 217.869 125.841C217.525 125.243 217.167 124.576 217.292 123.895C217.428 123.149 218.091 122.632 218.723 122.226C220.003 121.378 220.033 122.365 220.324 123.455L221.212 126.745Z" fill="black"/>
<path d="M221.018 126.745C221.135 127.176 221.246 127.652 221.051 128.052C221.007 128.16 220.925 128.249 220.821 128.302C220.733 128.339 220.638 128.352 220.544 128.341C219.875 128.284 219.254 127.975 218.804 127.476C218.36 126.981 217.98 126.432 217.674 125.841C217.33 125.243 216.972 124.576 217.097 123.895C217.233 123.149 217.896 122.632 218.529 122.226C219.808 121.378 219.839 122.365 220.13 123.455L221.018 126.745Z" fill="#67647E"/>
<path opacity="0.1" d="M224.689 110.209L225.336 109.117L224.77 111.147L224.689 110.209Z" fill="black"/>
<path opacity="0.1" d="M242.174 122.404L243.661 123.08L244.294 118.508L242.859 117.724C243.839 118.853 242.981 120.95 242.174 122.404Z" fill="black"/>
<path opacity="0.1" d="M248.143 117.098C248.143 117.098 243.34 117.39 241.303 116.077L248.143 117.098Z" fill="black"/>
<g opacity="0.1">
<path opacity="0.1" d="M247.546 120.168C248.193 119.01 249.007 117.953 249.96 117.031C250.189 116.887 250.426 116.757 250.671 116.642L258.163 115.101L258.596 115.007C258.596 115.007 258.662 100.354 253.484 98.3431C250.583 97.234 247.862 95.6978 245.412 93.7851L245.981 93.6099C245.981 93.6099 249.086 96.3324 254.261 98.3375C259.436 100.343 259.378 115.007 259.378 115.007H258.601L250.931 116.478L250.498 116.892C249.537 117.856 248.712 118.948 248.048 120.137C247.036 122.024 246.806 124.234 247.407 126.289H246.614C245.975 123.97 246.633 121.82 247.546 120.168Z" fill="black"/>
<path opacity="0.1" d="M227.098 94.3079C227.223 94.2912 227.342 94.2717 227.47 94.2578C227.995 94.3322 228.524 94.3758 229.054 94.3885C228.401 94.4065 227.747 94.3796 227.098 94.3079Z" fill="black"/>
<path opacity="0.1" d="M238.081 95.8124L233.341 93.418C233.44 93.3403 233.532 93.2557 233.619 93.1649L238.564 95.6678L238.081 95.8124Z" fill="black"/>
</g>
<path d="M256.132 110.727L259.303 114.62L259.95 125.188C259.95 125.188 260.782 130.569 254.644 129.273C248.506 127.977 241.38 123.956 241.38 123.956C241.38 123.956 244.81 119.35 242.934 117.601L251.734 120.454C251.734 120.454 253.221 120.129 252.055 118.833C250.89 117.537 250.685 115.201 250.685 115.201L256.132 110.727Z" fill="#67647E"/>
<path opacity="0.1" d="M257.555 121.881L259.303 123.889C258.854 123.751 258.452 123.49 258.143 123.135C257.834 122.78 257.63 122.346 257.555 121.881Z" fill="black"/>
<path opacity="0.1" d="M254.581 121.556L257.297 125.057L255.94 125.382L254.581 121.556Z" fill="black"/>
<path opacity="0.1" d="M227.483 78.5843C227.184 77.8529 227.411 77.0075 227.761 76.3039C228.11 75.6004 228.613 74.9607 228.871 74.2154C229.273 73.1031 229.148 71.8572 229.587 70.7615C230.355 68.8426 232.539 67.9805 234.498 67.3326C235.075 67.1407 235.691 66.946 236.285 67.0878C237.068 67.277 237.592 67.9972 238.228 68.4783C240.886 70.4639 245.207 68.2781 247.776 70.3805C248.761 71.1842 249.238 72.4746 249.386 73.7371C249.533 74.9997 249.386 76.2817 249.372 77.5554C249.33 79.7801 249.743 82.2218 251.411 83.6985C251.913 84.1435 252.505 84.48 252.993 84.9388C253.481 85.3977 253.867 86.0512 253.781 86.7103C253.712 87.0165 253.619 87.3168 253.503 87.6085C253.171 88.771 253.664 90.003 254.267 91.0514C256.065 94.166 259.231 96.7329 262.824 96.8052C262.583 98.6211 260.702 99.6751 259.031 100.42C256.903 101.369 254.666 102.3 252.341 102.181C250.015 102.061 247.59 100.571 247.177 98.2874C247.035 97.5004 247.055 96.5354 246.372 96.1211C245.961 95.8708 245.429 95.9347 244.985 95.7456C244.344 95.4675 244.024 94.7612 243.814 94.0937C243.38 92.7219 243.148 91.2943 243.123 89.8556C243.095 88.1508 243.322 86.2904 242.357 84.886C241.463 83.5873 239.876 82.9393 238.846 81.7324C237.897 80.62 236.862 79.2907 235.306 79.0793C233.213 78.7762 228.757 81.7101 227.483 78.5843Z" fill="black"/>
<path d="M227.483 78.1951C227.184 77.4637 227.411 76.6182 227.761 75.9147C228.11 75.2111 228.613 74.5715 228.871 73.8262C229.273 72.7138 229.148 71.4679 229.587 70.3722C230.355 68.4533 232.539 67.5912 234.498 66.9433C235.075 66.7514 235.691 66.5567 236.285 66.6986C237.068 66.8877 237.592 67.6079 238.228 68.089C240.886 70.0774 245.207 67.8888 247.776 69.9912C248.761 70.7977 249.238 72.0853 249.386 73.3478C249.533 74.6104 249.386 75.8924 249.372 77.1661C249.33 79.3909 249.743 81.8326 251.411 83.3092C251.913 83.7542 252.505 84.0907 252.993 84.5495C253.481 85.0084 253.867 85.6619 253.781 86.321C253.712 86.628 253.619 86.9293 253.503 87.2221C253.171 88.3817 253.664 89.6165 254.267 90.6621C256.065 93.7768 259.231 96.3436 262.824 96.4159C262.583 98.2319 260.702 99.2859 259.031 100.031C256.903 100.982 254.666 101.911 252.341 101.792C250.015 101.672 247.59 100.181 247.177 97.8843C247.035 97.0973 247.055 96.1323 246.372 95.7179C245.961 95.4676 245.429 95.5316 244.985 95.3425C244.344 95.0644 244.024 94.358 243.814 93.6906C243.38 92.3187 243.148 90.8911 243.123 89.4524C243.095 87.7477 243.322 85.8872 242.357 84.4828C241.463 83.1841 239.876 82.5361 238.846 81.3292C237.897 80.2168 236.862 78.8875 235.306 78.6762C233.213 78.4008 228.757 81.3209 227.483 78.1951Z" fill="#585268"/>
<path opacity="0.1" d="M233.399 99.6891L238.183 95.7958C238.183 95.7958 234.909 94.016 234.518 92.4976C234.126 90.9791 231.507 93.2178 231.773 94.5805C232.04 95.9432 233.399 99.6891 233.399 99.6891Z" fill="black"/>
<path d="M233.594 99.105L238.378 95.2117C238.378 95.2117 235.104 93.4319 234.713 91.9134C234.321 90.395 231.702 92.6337 231.968 93.9964C232.235 95.3591 233.594 99.105 233.594 99.105Z" fill="#67647E"/>
<path opacity="0.1" d="M238.564 98.8521C238.774 98.8521 238.944 98.6815 238.944 98.4711C238.944 98.2607 238.774 98.0901 238.564 98.0901C238.354 98.0901 238.184 98.2607 238.184 98.4711C238.184 98.6815 238.354 98.8521 238.564 98.8521Z" fill="black"/>
<path opacity="0.1" d="M238.564 100.971C238.774 100.971 238.944 100.801 238.944 100.59C238.944 100.38 238.774 100.209 238.564 100.209C238.354 100.209 238.184 100.38 238.184 100.59C238.184 100.801 238.354 100.971 238.564 100.971Z" fill="black"/>
<path opacity="0.1" d="M238.564 103.087C238.774 103.087 238.944 102.917 238.944 102.706C238.944 102.496 238.774 102.325 238.564 102.325C238.354 102.325 238.184 102.496 238.184 102.706C238.184 102.917 238.354 103.087 238.564 103.087Z" fill="black"/>
<g opacity="0.1">
<path opacity="0.1" d="M229.409 72.7916C229.787 71.7488 229.706 70.5808 230.059 69.5323C229.897 69.7648 229.762 70.0149 229.656 70.2777C229.218 71.3734 229.34 72.6248 228.94 73.7344C228.94 73.7538 228.921 73.7761 228.913 73.7983C229.108 73.4786 229.275 73.1417 229.409 72.7916Z" fill="black"/>
<path opacity="0.1" d="M259.598 98.9967C257.469 99.9478 255.233 100.877 252.905 100.757C250.576 100.637 248.157 99.1468 247.743 96.8498C247.602 96.0628 247.621 95.0978 246.939 94.6834C246.528 94.4331 245.995 94.4971 245.551 94.308C244.907 94.0299 244.591 93.3235 244.38 92.6561C243.946 91.2824 243.714 89.853 243.689 88.4123C243.661 86.7076 243.886 84.8471 242.923 83.4428C242.03 82.1441 240.443 81.4961 239.413 80.2892C238.461 79.1768 237.429 77.8475 235.87 77.6361C233.733 77.358 229.274 80.278 228.003 77.1522C227.799 76.5614 227.828 75.9149 228.083 75.3446C227.992 75.5003 227.903 75.6561 227.822 75.8146C227.462 76.5182 227.234 77.3636 227.545 78.095C228.818 81.2208 233.275 78.2869 235.414 78.5789C236.971 78.7902 238.006 80.1279 238.958 81.2319C239.987 82.4277 241.572 83.0868 242.465 84.3883C243.431 85.7788 243.206 87.6531 243.234 89.3551C243.257 90.7947 243.489 92.2234 243.922 93.5961C244.133 94.2607 244.452 94.9865 245.093 95.2479C245.537 95.4343 246.07 95.3731 246.481 95.6234C247.161 96.035 247.144 97.0139 247.283 97.787C247.696 100.084 250.121 101.577 252.447 101.697C254.772 101.817 257.011 100.885 259.137 99.9339C260.669 99.2525 262.375 98.3042 262.833 96.7524C262.09 97.7731 260.791 98.4655 259.598 98.9967Z" fill="black"/>
</g>
</g>
<defs>
<linearGradient id="paint0_linear" x1="97.7961" y1="88.1982" x2="97.7961" y2="37.7405" gradientUnits="userSpaceOnUse">
<stop stop-color="#808080" stop-opacity="0.25"/>
<stop offset="0.54" stop-color="#808080" stop-opacity="0.12"/>
<stop offset="1" stop-color="#808080" stop-opacity="0.1"/>
</linearGradient>
<linearGradient id="paint1_linear" x1="48409.4" y1="26281.1" x2="48409.4" y2="18180.6" gradientUnits="userSpaceOnUse">
<stop stop-color="#808080" stop-opacity="0.25"/>
<stop offset="0.54" stop-color="#808080" stop-opacity="0.12"/>
<stop offset="1" stop-color="#808080" stop-opacity="0.1"/>
</linearGradient>
<linearGradient id="paint2_linear" x1="58.2089" y1="95.6316" x2="58.2089" y2="95.6229" gradientUnits="userSpaceOnUse">
<stop stop-color="#808080" stop-opacity="0.25"/>
<stop offset="0.54" stop-color="#808080" stop-opacity="0.12"/>
<stop offset="1" stop-color="#808080" stop-opacity="0.1"/>
</linearGradient>
<linearGradient id="paint3_linear" x1="13092.9" y1="143352" x2="13092.9" y2="42063.8" gradientUnits="userSpaceOnUse">
<stop stop-color="#808080" stop-opacity="0.25"/>
<stop offset="0.54" stop-color="#808080" stop-opacity="0.12"/>
<stop offset="1" stop-color="#808080" stop-opacity="0.1"/>
</linearGradient>
<linearGradient id="paint4_linear" x1="48840.2" y1="137518" x2="48840.2" y2="43474.7" gradientUnits="userSpaceOnUse">
<stop stop-color="#808080" stop-opacity="0.25"/>
<stop offset="0.54" stop-color="#808080" stop-opacity="0.12"/>
<stop offset="1" stop-color="#808080" stop-opacity="0.1"/>
</linearGradient>
<clipPath id="clip0">
<rect width="284" height="233" fill="white"/>
</clipPath>
</defs>
</svg>
